<?xml version="1.0" encoding="UTF-8" standalone="no"?>
<!-- Generator: Adobe Illustrator 19.0.0, SVG Export Plug-In . SVG Version: 6.00 Build 0)  -->

<svg
   xmlns:dc="http://purl.org/dc/elements/1.1/"
   xmlns:cc="http://creativecommons.org/ns#"
   xmlns:rdf="http://www.w3.org/1999/02/22-rdf-syntax-ns#"
   xmlns:svg="http://www.w3.org/2000/svg"
   xmlns="http://www.w3.org/2000/svg"
   xmlns:sodipodi="http://sodipodi.sourceforge.net/DTD/sodipodi-0.dtd"
   xmlns:inkscape="http://www.inkscape.org/namespaces/inkscape"
   version="1.1"
   id="Capa_1"
   x="0px"
   y="0px"
   viewBox="0 0 380 380"
   style="enable-background:new 0 0 380 380;"
   xml:space="preserve"
   sodipodi:docname="PointLight.svg"
   inkscape:version="0.92.4 5da689c313, 2019-01-14"><metadata
   id="metadata55"><rdf:RDF><cc:Work
       rdf:about=""><dc:format>image/svg+xml</dc:format><dc:type
         rdf:resource="http://purl.org/dc/dcmitype/StillImage" /><dc:title></dc:title></cc:Work></rdf:RDF></metadata><defs
   id="defs53" /><sodipodi:namedview
   pagecolor="#ffffff"
   bordercolor="#666666"
   borderopacity="1"
   objecttolerance="10"
   gridtolerance="10"
   guidetolerance="10"
   inkscape:pageopacity="0"
   inkscape:pageshadow="2"
   inkscape:window-width="1916"
   inkscape:window-height="951"
   id="namedview51"
   showgrid="false"
   inkscape:zoom="0.62105263"
   inkscape:cx="-172.28814"
   inkscape:cy="190"
   inkscape:window-x="1920"
   inkscape:window-y="108"
   inkscape:window-maximized="0"
   inkscape:current-layer="Capa_1" />
<g
   id="XMLID_2_">
	<path
   id="XMLID_4_"
   style="fill:#FFDA44;"
   d="M129.48,311.289h121.026c2.319-18.419,11.726-26.242,23.471-37.644   c16.82-16.329,37.753-36.65,37.753-87.096c0-32.261-12.805-61.618-36.056-82.665C253.249,83.585,222.823,72.406,190,72.406   c-32.823,0-63.249,11.179-85.673,31.478c-23.251,21.047-36.056,50.404-36.056,82.665c0,50.521,20.977,70.961,37.833,87.385   C117.763,285.294,127.121,293.207,129.48,311.289z" />
	<g
   id="XMLID_5_">
		<rect
   id="XMLID_6_"
   x="175"
   style="fill:#FFEB99;"
   width="30"
   height="40" />
	</g>
	<g
   id="XMLID_7_">
		
			<rect
   id="XMLID_8_"
   x="265"
   y="26.972"
   transform="matrix(0.8321 0.5547 -0.5547 0.8321 71.9839 -147.7546)"
   style="fill:#FFE477;"
   width="30"
   height="36.056" />
	</g>
	<g
   id="XMLID_9_">
		
			<rect
   id="XMLID_10_"
   x="327.5"
   y="94.822"
   transform="matrix(0.1414 0.99 -0.99 0.1414 405.4374 -242.4667)"
   style="fill:#FFE477;"
   width="30"
   height="35.355" />
	</g>
	<g
   id="XMLID_11_">
		
			<rect
   id="XMLID_12_"
   x="19.822"
   y="97.5"
   transform="matrix(0.9899 0.1414 -0.1414 0.9899 16.2868 -4.1726)"
   style="fill:#FFEB99;"
   width="35.355"
   height="30" />
	</g>
	<g
   id="XMLID_13_">
		
			<rect
   id="XMLID_14_"
   x="81.972"
   y="30"
   transform="matrix(0.5547 0.8321 -0.8321 0.5547 81.9722 -63.1665)"
   style="fill:#FFEB99;"
   width="36.056"
   height="30" />
	</g>
	<path
   id="XMLID_15_"
   style="fill:#FFCD00;"
   d="M275.673,103.884C253.249,83.585,222.823,72.406,190,72.406v238.883h60.506   c2.319-18.419,11.726-26.242,23.47-37.644c16.82-16.329,37.753-36.65,37.753-87.096   C311.73,154.288,298.925,124.931,275.673,103.884z" />
	<rect
   id="XMLID_35_"
   x="148.212"
   y="345.645"
   style="fill:#00D7DF;"
   width="83.576"
   height="34.355" />
	<rect
   id="XMLID_34_"
   x="133.677"
   y="319.878"
   style="fill:#00D7DF;"
   width="112.646"
   height="34.355" />
	<rect
   id="XMLID_33_"
   x="119.142"
   y="294.111"
   style="fill:#00D7DF;"
   width="141.716"
   height="34.355" />
	<polygon
   id="XMLID_16_"
   style="fill:#00969B;"
   points="190,294.111 190,380 231.788,380 231.788,354.233 246.323,354.233    246.323,328.467 260.858,328.467 260.858,294.111  " />
	<rect
   id="XMLID_17_"
   x="190"
   style="fill:#FFE477;"
   width="15"
   height="40" />
</g>
<g
   id="g20">
</g>
<g
   id="g22">
</g>
<g
   id="g24">
</g>
<g
   id="g26">
</g>
<g
   id="g28">
</g>
<g
   id="g30">
</g>
<g
   id="g32">
</g>
<g
   id="g34">
</g>
<g
   id="g36">
</g>
<g
   id="g38">
</g>
<g
   id="g40">
</g>
<g
   id="g42">
</g>
<g
   id="g44">
</g>
<g
   id="g46">
</g>
<g
   id="g48">
</g>
</svg>