<?xml version="1.0" encoding="UTF-8" standalone="no"?>
<svg
   xmlns:dc="http://purl.org/dc/elements/1.1/"
   xmlns:cc="http://creativecommons.org/ns#"
   xmlns:rdf="http://www.w3.org/1999/02/22-rdf-syntax-ns#"
   xmlns:svg="http://www.w3.org/2000/svg"
   xmlns="http://www.w3.org/2000/svg"
   xmlns:sodipodi="http://sodipodi.sourceforge.net/DTD/sodipodi-0.dtd"
   xmlns:inkscape="http://www.inkscape.org/namespaces/inkscape"
   height="390"
   width="394"
   version="1.1"
   id="Capa_1"
   x="0px"
   y="0px"
   viewBox="0 0 394 390"
   xml:space="preserve"
   sodipodi:docname="SunskyLight.svg"
   inkscape:version="1.0 (4035a4fb49, 2020-05-01)"><metadata
   id="metadata55"><rdf:RDF><cc:Work
       rdf:about=""><dc:format>image/svg+xml</dc:format><dc:type
         rdf:resource="http://purl.org/dc/dcmitype/StillImage" /><dc:title></dc:title></cc:Work></rdf:RDF></metadata><defs
   id="defs53" /><sodipodi:namedview
   pagecolor="#ffffff"
   bordercolor="#666666"
   borderopacity="1"
   objecttolerance="10"
   gridtolerance="10"
   guidetolerance="10"
   inkscape:pageopacity="0"
   inkscape:pageshadow="2"
   inkscape:window-width="1916"
   inkscape:window-height="987"
   id="namedview51"
   showgrid="false"
   inkscape:zoom="0.31052633"
   inkscape:cx="-1101.3558"
   inkscape:cy="137.53239"
   inkscape:window-x="0"
   inkscape:window-y="72"
   inkscape:window-maximized="0"
   inkscape:current-layer="XMLID_2_"
   inkscape:document-rotation="0"
   showguides="true"
   inkscape:guide-bbox="true"><sodipodi:guide
     position="-156.99153,193.22034"
     orientation="1,0"
     id="guide870" /></sodipodi:namedview>
<g
   id="XMLID_2_">
	
	<g
   transform="translate(10,6)"
   id="XMLID_5_">
		<rect
   y="0"
   id="XMLID_6_"
   x="175"
   style="fill:#ffeb99"
   width="30"
   height="40" />
	</g>
	<g
   transform="translate(10,6)"
   id="XMLID_7_">
		
			<rect
   id="XMLID_8_"
   x="265"
   y="26.972"
   transform="matrix(0.8321,0.5547,-0.5547,0.8321,71.9839,-147.7546)"
   style="fill:#ffe477"
   width="30"
   height="36.056" />
	</g>
	<g
   transform="translate(6.0761948,4.5763111)"
   id="XMLID_9_">
		
			<rect
   id="XMLID_10_"
   x="327.5"
   y="94.821999"
   transform="matrix(0.1414,0.99,-0.99,0.1414,405.4374,-242.4667)"
   style="fill:#ffe477"
   width="30"
   height="35.355" />
	</g>
	<g
   transform="translate(12.422674,1.8150238)"
   id="XMLID_11_">
		
			<rect
   id="XMLID_12_"
   x="19.822001"
   y="97.5"
   transform="matrix(0.9899,0.1414,-0.1414,0.9899,16.2868,-4.1726)"
   style="fill:#ffeb99"
   width="35.355"
   height="30" />
	</g>
	<g
   transform="translate(10,6)"
   id="XMLID_13_">
		
			<rect
   id="XMLID_14_"
   x="81.972"
   y="30"
   transform="matrix(0.5547,0.8321,-0.8321,0.5547,81.9722,-63.1665)"
   style="fill:#ffeb99"
   width="36.056"
   height="30" />
	</g>
	
	
	
	
	
	<rect
   y="6"
   id="XMLID_17_"
   x="200"
   style="fill:#ffe477"
   width="15"
   height="40" />
<path
   id="path868"
   style="fill:#ffda44;fill-opacity:1;stroke:none;stroke-width:2.1;stroke-linecap:butt;stroke-miterlimit:4;stroke-dasharray:none;stroke-dashoffset:0;stroke-opacity:1;paint-order:normal"
   d="M 200,72.406 A 123.0147,123.0147 0 0 0 77.11328,195.41968 123.0147,123.0147 0 0 0 200,318.4353 Z" /><path
   style="fill:#ffcd00;fill-opacity:1;stroke:none;stroke-width:2.1;stroke-linecap:butt;stroke-miterlimit:4;stroke-dasharray:none;stroke-dashoffset:0;stroke-opacity:1;paint-order:normal"
   d="M 200.09664,195.35788 V 72.35426 l 4.32733,0.2546 c 27.12527,1.59594 49.04725,9.3171 69.14693,24.35433 26.47295,19.80527 43.44921,48.55933 48.36366,81.91738 1.02419,6.9519 1.02543,26.17213 0.002,33.00847 -2.23303,14.91833 -5.9435,26.62394 -12.51275,39.47461 -16.21664,31.72298 -45.52174,54.95379 -79.91824,63.35311 -8.05191,1.96621 -20.83516,3.63544 -27.89941,3.6431 l -1.50953,0.002 z"
   id="path879" /><g
   style="stroke-width:1.05192"
   id="XMLID_5_-3"
   transform="matrix(1,0,0,-0.90371929,11.422758,383.0342)"><rect
     height="40"
     width="30"
     style="fill:#ffeb99;stroke-width:1.05192"
     x="175"
     id="XMLID_6_-6"
     y="0" /></g><g
   id="XMLID_7_-7"
   transform="matrix(1,0,0,-1,19.005498,383.31395)"><rect
     height="36.056"
     width="30"
     style="fill:#ffe477"
     transform="matrix(0.8321,0.5547,-0.5547,0.8321,71.9839,-147.7546)"
     y="26.972"
     x="265"
     id="XMLID_8_-5" /></g><g
   id="XMLID_9_-3"
   transform="matrix(1,0,0,-1,8.833853,392.67044)"><rect
     height="35.355"
     width="30"
     style="fill:#ffe477"
     transform="matrix(0.1414,0.99,-0.99,0.1414,405.4374,-242.4667)"
     y="94.821999"
     x="327.5"
     id="XMLID_10_-5" /></g><g
   id="XMLID_11_-6"
   transform="matrix(1,0,0,-1,10.382534,392.41051)"><rect
     height="30"
     width="35.355"
     style="fill:#ffeb99"
     transform="matrix(0.9899,0.1414,-0.1414,0.9899,16.2868,-4.1726)"
     y="97.5"
     x="19.822001"
     id="XMLID_12_-2" /></g><g
   id="XMLID_13_-9"
   transform="matrix(1,0,0,-1,-0.080577,383.40178)"><rect
     height="30"
     width="36.056"
     style="fill:#ffeb99"
     transform="matrix(0.5547,0.8321,-0.8321,0.5547,81.9722,-63.1665)"
     y="30"
     x="81.972"
     id="XMLID_14_-1" /></g><rect
   height="36.148773"
   width="15"
   style="fill:#ffe477;stroke-width:0.999999"
   x="201.42274"
   id="XMLID_17_-2"
   y="-383.03421"
   transform="scale(1,-1)" /><g
   id="g928"
   transform="matrix(1.0213986,-0.15655083,0.16189701,0.9876699,-27.273582,91.060705)"
   style="stroke-width:0.98335">
		
			<rect
   height="30"
   width="35.355"
   style="fill:#ffeb99;stroke-width:0.98335"
   transform="matrix(0.9899,0.1414,-0.1414,0.9899,16.2868,-4.1726)"
   y="97.5"
   x="19.822001"
   id="rect926" />
	</g><g
   id="g934"
   transform="matrix(1.0250872,0.13209845,-0.13660959,0.9912366,33.168369,40.677182)"
   style="stroke-width:0.98335">
		
			<rect
   height="35.355"
   width="30"
   style="fill:#ffe477;stroke-width:0.98335"
   transform="matrix(0.1414,0.99,-0.99,0.1414,405.4374,-242.4667)"
   y="94.821999"
   x="327.5"
   id="rect932" />
	</g></g>
<g
   id="g20">
</g>
<g
   id="g22">
</g>
<g
   id="g24">
</g>
<g
   id="g26">
</g>
<g
   id="g28">
</g>
<g
   id="g30">
</g>
<g
   id="g32">
</g>
<g
   id="g34">
</g>
<g
   id="g36">
</g>
<g
   id="g38">
</g>
<g
   id="g40">
</g>
<g
   id="g42">
</g>
<g
   id="g44">
</g>
<g
   id="g46">
</g>
<g
   id="g48">
</g>
</svg>
