<?xml version="1.0" encoding="UTF-8" standalone="no" ?>
<!DOCTYPE svg PUBLIC "-//W3C//DTD SVG 1.1//EN" "http://www.w3.org/Graphics/SVG/1.1/DTD/svg11.dtd">
<svg xmlns="http://www.w3.org/2000/svg" xmlns:xlink="http://www.w3.org/1999/xlink" version="1.1" width="1080" height="1080" viewBox="0 0 1080 1080" xml:space="preserve">
<desc>Created with Fabric.js 5.2.4</desc>
<defs>
</defs>
<rect x="0" y="0" width="100%" height="100%" fill="transparent"></rect>
<g transform="matrix(1 0 0 1 540 540)" id="69fe95bc-215a-4de9-8a5c-07db538ae0a1"  >
</g>
<g transform="matrix(1 0 0 1 540 540)" id="447d697c-d8bc-40a3-a0fa-4d2fc1c25557"  >
<rect style="stroke: none; stroke-width: 1; stroke-dasharray: none; stroke-linecap: butt; stroke-dashoffset: 0; stroke-linejoin: miter; stroke-miterlimit: 4; fill: rgb(255,255,255); fill-rule: nonzero; opacity: 1; visibility: hidden;" vector-effect="non-scaling-stroke"  x="-540" y="-540" rx="0" ry="0" width="1080" height="1080" />
</g>
<g transform="matrix(3.6 0 0 3.6 928.38 350.45)"  >
<path style="stroke: rgb(0,215,217); stroke-width: 0; stroke-dasharray: none; stroke-linecap: butt; stroke-dashoffset: 0; stroke-linejoin: miter; stroke-miterlimit: 4; fill: rgb(255,218,68); fill-rule: nonzero; opacity: 1;" vector-effect="non-scaling-stroke"  transform=" translate(-50, -50)" d="M 76.854 20.966 C 81.821 20.966 85.82 24.965 85.82 29.872 L 85.82 77.366 C 85.82 82.275 81.821 86.332 76.854 86.332 L 29.417 86.332 C 24.450000000000003 86.332 20.451 82.27499999999999 20.451 77.366 C 20.633 70.762 37.172 68.342 48.925 63.192 L 15.907 30.176 C 13.605 27.813 13.605 24.055999999999997 15.907 21.753999999999998 L 22.268 15.392999999999997 C 24.57 13.090999999999998 28.326 13.090999999999998 30.628 15.392999999999997 L 63.221000000000004 48.047 C 67.888 36.597 70.188 21.814 76.854 20.966 z" stroke-linecap="round" />
</g>
<g transform="matrix(3.6 0 0 3.6 633.33 635.85)"  >
<path style="stroke: rgb(0,215,217); stroke-width: 0; stroke-dasharray: none; stroke-linecap: butt; stroke-dashoffset: 0; stroke-linejoin: miter; stroke-miterlimit: 4; fill: rgb(255,218,68); fill-rule: nonzero; opacity: 1;" vector-effect="non-scaling-stroke"  transform=" translate(-50, -50)" d="M 76.854 20.966 C 81.821 20.966 85.82 24.965 85.82 29.872 L 85.82 77.366 C 85.82 82.275 81.821 86.332 76.854 86.332 L 29.417 86.332 C 24.450000000000003 86.332 20.451 82.27499999999999 20.451 77.366 C 20.633 70.762 37.172 68.342 48.925 63.192 L 15.907 30.176 C 13.605 27.813 13.605 24.055999999999997 15.907 21.753999999999998 L 22.268 15.392999999999997 C 24.57 13.090999999999998 28.326 13.090999999999998 30.628 15.392999999999997 L 63.221000000000004 48.047 C 67.888 36.597 70.188 21.814 76.854 20.966 z" stroke-linecap="round" />
</g>
<g transform="matrix(3.6 0 0 3.6 348.76 926.52)"  >
<path style="stroke: rgb(0,215,223); stroke-width: 0; stroke-dasharray: none; stroke-linecap: butt; stroke-dashoffset: 0; stroke-linejoin: miter; stroke-miterlimit: 4; fill: rgb(255,218,68); fill-rule: nonzero; opacity: 1;" vector-effect="non-scaling-stroke"  transform=" translate(-50, -50)" d="M 76.854 20.966 C 81.821 20.966 85.82 24.965 85.82 29.872 L 85.82 77.366 C 85.82 82.275 81.821 86.332 76.854 86.332 L 29.417 86.332 C 24.450000000000003 86.332 20.451 82.27499999999999 20.451 77.366 C 20.633 70.762 37.172 68.342 48.925 63.192 L 15.907 30.176 C 13.605 27.813 13.605 24.055999999999997 15.907 21.753999999999998 L 22.268 15.392999999999997 C 24.57 13.090999999999998 28.326 13.090999999999998 30.628 15.392999999999997 L 63.221000000000004 48.047 C 67.888 36.597 70.188 21.814 76.854 20.966 z" stroke-linecap="round" />
</g>
<g transform="matrix(11.23 -11.23 1.07 1.07 458.51 452.79)" id="d04ed187-7e34-4b29-a421-f62cb75a8741"  >
<rect style="stroke: rgb(0,0,0); stroke-width: 0; stroke-dasharray: none; stroke-linecap: butt; stroke-dashoffset: 0; stroke-linejoin: miter; stroke-miterlimit: 4; fill: rgb(255,218,68); fill-rule: nonzero; opacity: 1;" vector-effect="non-scaling-stroke"  x="-33.085" y="-33.085" rx="0" ry="0" width="66.17" height="66.17" />
</g>
<g transform="matrix(11.23 -11.23 0.71 0.71 399.98 391.56)" id="d04ed187-7e34-4b29-a421-f62cb75a8741"  >
<rect style="stroke: rgb(0,0,0); stroke-width: 0; stroke-dasharray: none; stroke-linecap: butt; stroke-dashoffset: 0; stroke-linejoin: miter; stroke-miterlimit: 4; fill: rgb(0,215,217); fill-rule: nonzero; opacity: 1;" vector-effect="non-scaling-stroke"  x="-33.085" y="-33.085" rx="0" ry="0" width="66.17" height="66.17" />
</g>
</svg>